# MagicaVoxel @ Ephtracy

# group
o proof

# material
mtllib proof.mtl
usemtl palette

# normals
vn -1 0 0
vn 1 0 0
vn 0 -1 0
vn 0 1 0
vn 0 0 -1
vn 0 0 1

# texcoords
vt 0.0683594 0.5
vt 0.0839844 0.5
vt 0.0917969 0.5
vt 0.123047 0.5

# verts
v -2.3 1.2 -0.2
v -2.3 2.6 -0.2
v -2.3 1.2 0.1
v -2.3 2.6 0.1
v -1.9 1.3 0
v -1.9 1.4 0
v -1.9 1.7 0
v -1.9 2 0
v -1.9 2.1 0
v -1.9 2.2 0
v -1.9 1.3 0.1
v -1.9 1.7 0.1
v -1.9 2 0.1
v -1.9 2.2 0.1
v -1.4 1.2 -0.2
v -1.4 1.6 -0.2
v -1.4 1.7 0
v -1.4 1.8 0
v -1.4 2.5 0
v -1.4 1.2 0.1
v -1.4 1.6 0.1
v -1.4 1.7 0.1
v -1.4 2.5 0.1
v -1 1.3 0
v -1 1.5 0
v -1 2 0
v -1 2.2 0
v -1 1.3 0.1
v -1 1.5 0.1
v -1 2 0.1
v -1 2.2 0.1
v -0.7 1.6 0
v -0.7 1.7 0
v -0.7 1.6 0.1
v -0.7 1.7 0.1
v -0.6 1.5 0
v -0.6 1.6 0
v -0.6 1.5 0.1
v -0.6 1.6 0.1
v -0.5 1.3 0
v -0.5 1.5 0
v -0.5 1.7 0
v -0.5 1.8 0
v -0.5 2.4 0
v -0.5 2.5 0
v -0.5 1.3 0.1
v -0.5 1.5 0.1
v -0.5 1.7 0.1
v -0.5 2.5 0.1
v -0.0999999 1.6 0
v -0.0999999 2.2 0
v -0.0999999 1.6 0.1
v -0.0999999 2.2 0.1
v 0.4 1.3 0
v 0.4 1.4 0
v 0.4 1.7 0
v 0.4 2.5 0
v 0.4 1.3 0.1
v 0.4 2.5 0.1
v 0.8 1.6 0
v 0.8 2.1 0
v 0.8 2.2 0
v 0.8 1.6 0.1
v 0.8 2.2 0.1
v 1.3 1.3 0
v 1.3 1.4 0
v 1.3 2.2 0
v 1.3 2.4 0
v 1.3 2.5 0
v 1.3 1.3 0.1
v 1.3 2.5 0.1
v 1.7 1.3 0
v 1.7 1.7 0
v 1.7 2 0
v 1.7 2.2 0
v 1.7 1.3 0.1
v 1.7 1.7 0.1
v 1.7 2 0.1
v 1.7 2.2 0.1
v 2.2 1.7 0
v 2.2 1.8 0
v 2.2 2 0
v 2.2 2.2 0
v 2.2 2.4 0
v 2.2 2.5 0
v 2.2 1.7 0.1
v 2.2 2 0.1
v 2.2 2.2 0.1
v 2.2 2.5 0.1
v -2.2 1.3 0
v -2.2 1.7 0
v -2.2 1.9 0
v -2.2 2.2 0
v -2.2 2.5 0
v -2.2 1.3 0.1
v -2.2 2.5 0.1
v -1.8 1.2 -0.2
v -1.8 1.6 -0.2
v -1.8 1.2 0.1
v -1.8 1.6 0.1
v -1.6 2 0
v -1.6 2.2 0
v -1.6 2 0.1
v -1.6 2.2 0.1
v -1.3 1.3 0
v -1.3 1.7 0
v -1.3 2.5 0
v -1.3 1.3 0.1
v -1.3 2.5 0.1
v -0.9 1.4 0
v -0.9 1.5 0
v -0.9 1.4 0.1
v -0.9 1.5 0.1
v -0.8 1.3 0
v -0.8 1.4 0
v -0.8 1.3 0.1
v -0.8 1.4 0.1
v -0.7 2 0
v -0.7 2.2 0
v -0.7 2 0.1
v -0.7 2.2 0.1
v -0.4 1.3 0
v -0.4 1.4 0
v -0.4 1.6 0
v -0.4 2.4 0
v -0.4 2.5 0
v -0.4 1.3 0.1
v -0.4 2.5 0.1
v 0.1 1.6 0
v 0.1 1.8 0
v 0.1 2.1 0
v 0.1 2.2 0
v 0.1 1.6 0.1
v 0.1 2.2 0.1
v 0.5 1.3 0
v 0.5 1.4 0
v 0.5 1.8 0
v 0.5 2.5 0
v 0.5 1.3 0.1
v 0.5 2.5 0.1
v 1 1.6 0
v 1 1.9 0
v 1 2.2 0
v 1 1.6 0.1
v 1 2.2 0.1
v 1.4 1.3 0
v 1.4 1.8 0
v 1.4 2 0
v 1.4 2.1 0
v 1.4 2.5 0
v 1.4 1.3 0.1
v 1.4 2.5 0.1
v 1.8 1.2 -0.2
v 1.8 1.6 -0.2
v 1.8 1.2 0.1
v 1.8 1.6 0.1
v 2.3 1.6 -0.2
v 2.3 2.6 -0.2
v 2.3 1.6 0.1
v 2.3 2.6 0.1
v -2.3 1.2 -0.2
v -2.3 1.2 0.1
v -1.8 1.2 -0.2
v -1.8 1.2 0.1
v -1.4 1.2 -0.2
v -1.4 1.2 0.1
v 1.8 1.2 -0.2
v 1.8 1.2 0.1
v -0.6 1.5 0
v -0.6 1.5 0.1
v -0.5 1.5 0
v -0.5 1.5 0.1
v -1.8 1.6 -0.2
v -1.8 1.6 0.1
v -1.4 1.6 -0.2
v -1.4 1.6 0.1
v -0.7 1.6 0
v -0.7 1.6 0.1
v -0.6 1.6 0
v -0.6 1.6 0.1
v -0.0999999 1.6 0
v -0.0999999 1.6 0.1
v 0.1 1.6 0
v 0.1 1.6 0.1
v 0.8 1.6 0
v 0.8 1.6 0.1
v 1 1.6 0
v 1 1.6 0.1
v 1.8 1.6 -0.2
v 1.8 1.6 0.1
v 2.3 1.6 -0.2
v 2.3 1.6 0.1
v -1.9 2 0
v -1.9 2 0.1
v -1.8 2 0
v -1.6 2 0
v -1.6 2 0.1
v -1 2 0
v -1 2 0.1
v -0.7 2 0
v -0.7 2 0.1
v 1.7 2 0
v 1.7 2 0.1
v 1.8 2 0
v 2.2 2 0
v 2.2 2 0.1
v -2.2 2.5 0
v -2.2 2.5 0.1
v -1.4 2.5 0
v -1.4 2.5 0.1
v -1.3 2.5 0
v -1.3 2.5 0.1
v -1.2 2.5 0
v -0.7 2.5 0
v -0.6 2.5 0
v -0.5 2.5 0
v -0.5 2.5 0.1
v -0.4 2.5 0
v -0.4 2.5 0.1
v -0.2 2.5 0
v 0.4 2.5 0
v 0.4 2.5 0.1
v 0.5 2.5 0
v 0.5 2.5 0.1
v 0.7 2.5 0
v 1 2.5 0
v 1.2 2.5 0
v 1.3 2.5 0
v 1.3 2.5 0.1
v 1.4 2.5 0
v 1.4 2.5 0.1
v 1.9 2.5 0
v 2.1 2.5 0
v 2.2 2.5 0
v 2.2 2.5 0.1
v -2.2 1.3 0
v -2.2 1.3 0.1
v -2 1.3 0
v -1.9 1.3 0
v -1.9 1.3 0.1
v -1.3 1.3 0
v -1.3 1.3 0.1
v -1 1.3 0
v -1 1.3 0.1
v -0.8 1.3 0
v -0.8 1.3 0.1
v -0.5 1.3 0
v -0.5 1.3 0.1
v -0.4 1.3 0
v -0.4 1.3 0.1
v -0.3 1.3 0
v 0.3 1.3 0
v 0.4 1.3 0
v 0.4 1.3 0.1
v 0.5 1.3 0
v 0.5 1.3 0.1
v 0.6 1.3 0
v 1.2 1.3 0
v 1.3 1.3 0
v 1.3 1.3 0.1
v 1.4 1.3 0
v 1.4 1.3 0.1
v 1.7 1.3 0
v 1.7 1.3 0.1
v -0.9 1.4 0
v -0.9 1.4 0.1
v -0.8 1.4 0
v -0.8 1.4 0.1
v -1 1.5 0
v -1 1.5 0.1
v -0.9 1.5 0
v -0.9 1.5 0.1
v -1.9 1.7 0
v -1.9 1.7 0.1
v -1.6 1.7 0
v -1.5 1.7 0
v -1.4 1.7 0
v -1.4 1.7 0.1
v -0.7 1.7 0
v -0.7 1.7 0.1
v -0.6 1.7 0
v -0.5 1.7 0
v -0.5 1.7 0.1
v 1.7 1.7 0
v 1.7 1.7 0.1
v 2.1 1.7 0
v 2.2 1.7 0
v 2.2 1.7 0.1
v -1.9 2.2 0
v -1.9 2.2 0.1
v -1.6 2.2 0
v -1.6 2.2 0.1
v -1 2.2 0
v -1 2.2 0.1
v -0.9 2.2 0
v -0.7 2.2 0
v -0.7 2.2 0.1
v -0.0999999 2.2 0
v -0.0999999 2.2 0.1
v 2.38419e-07 2.2 0
v 0.1 2.2 0
v 0.1 2.2 0.1
v 0.8 2.2 0
v 0.8 2.2 0.1
v 0.9 2.2 0
v 1 2.2 0
v 1 2.2 0.1
v 1.7 2.2 0
v 1.7 2.2 0.1
v 1.8 2.2 0
v 2.2 2.2 0
v 2.2 2.2 0.1
v -2.3 2.6 -0.2
v -2.3 2.6 0.1
v 2.3 2.6 -0.2
v 2.3 2.6 0.1
v -2.3 1.2 -0.2
v -1.8 1.2 -0.2
v -1.4 1.2 -0.2
v 1.8 1.2 -0.2
v -1.8 1.6 -0.2
v -1.4 1.6 -0.2
v 1.8 1.6 -0.2
v 2.3 1.6 -0.2
v -2.3 2.6 -0.2
v 2.3 2.6 -0.2
v -2.2 1.3 0
v -2 1.3 0
v -1.9 1.3 0
v -1.3 1.3 0
v -1 1.3 0
v -0.8 1.3 0
v -0.5 1.3 0
v -0.4 1.3 0
v -0.3 1.3 0
v 0.3 1.3 0
v 0.4 1.3 0
v 0.5 1.3 0
v 0.6 1.3 0
v 1.2 1.3 0
v 1.3 1.3 0
v 1.4 1.3 0
v 1.7 1.3 0
v -2 1.4 0
v -1.9 1.4 0
v -0.9 1.4 0
v -0.8 1.4 0
v -0.4 1.4 0
v -0.3 1.4 0
v 0.3 1.4 0
v 0.4 1.4 0
v 0.5 1.4 0
v 0.6 1.4 0
v 0.7 1.4 0
v 1.2 1.4 0
v 1.3 1.4 0
v -1 1.5 0
v -0.9 1.5 0
v -0.7 1.5 0
v -0.6 1.5 0
v -0.5 1.5 0
v -0.3 1.5 0
v -0.0999999 1.5 0
v 0.6 1.5 0
v 0.7 1.5 0
v -0.9 1.6 0
v -0.7 1.6 0
v -0.6 1.6 0
v -0.4 1.6 0
v -0.3 1.6 0
v -0.0999999 1.6 0
v 0.1 1.6 0
v 0.8 1.6 0
v 1 1.6 0
v -2.2 1.7 0
v -2.1 1.7 0
v -1.9 1.7 0
v -1.6 1.7 0
v -1.5 1.7 0
v -1.4 1.7 0
v -1.3 1.7 0
v -1.2 1.7 0
v -1 1.7 0
v -0.9 1.7 0
v -0.7 1.7 0
v -0.6 1.7 0
v -0.5 1.7 0
v 0.2 1.7 0
v 0.4 1.7 0
v 1.5 1.7 0
v 1.7 1.7 0
v 2.1 1.7 0
v 2.2 1.7 0
v -1.7 1.8 0
v -1.6 1.8 0
v -1.5 1.8 0
v -1.4 1.8 0
v -1.2 1.8 0
v -1 1.8 0
v -0.6 1.8 0
v -0.5 1.8 0
v 0.1 1.8 0
v 0.2 1.8 0
v 0.5 1.8 0
v 0.6 1.8 0
v 1.4 1.8 0
v 1.5 1.8 0
v 1.7 1.8 0
v 1.8 1.8 0
v 2.1 1.8 0
v 2.2 1.8 0
v -2.2 1.9 0
v -2.1 1.9 0
v -1.8 1.9 0
v -1.7 1.9 0
v 1 1.9 0
v 1.1 1.9 0
v -1.9 2 0
v -1.8 2 0
v -1.6 2 0
v -1 2 0
v -0.7 2 0
v 0.6 2 0
v 0.7 2 0
v 1.1 2 0
v 1.2 2 0
v 1.4 2 0
v 1.5 2 0
v 1.7 2 0
v 1.8 2 0
v 2.2 2 0
v -2 2.1 0
v -1.9 2.1 0
v 0.1 2.1 0
v 0.2 2.1 0
v 0.7 2.1 0
v 0.8 2.1 0
v 1.4 2.1 0
v 1.5 2.1 0
v -2.2 2.2 0
v -2 2.2 0
v -1.9 2.2 0
v -1.6 2.2 0
v -1 2.2 0
v -0.9 2.2 0
v -0.7 2.2 0
v -0.0999999 2.2 0
v 2.38419e-07 2.2 0
v 0.1 2.2 0
v 0.2 2.2 0
v 0.8 2.2 0
v 0.9 2.2 0
v 1 2.2 0
v 1.1 2.2 0
v 1.2 2.2 0
v 1.3 2.2 0
v 1.7 2.2 0
v 1.8 2.2 0
v 2.2 2.2 0
v -1.1 2.3 0
v -1 2.3 0
v -0.9 2.3 0
v -0.8 2.3 0
v -0.2 2.3 0
v -0.0999999 2.3 0
v 2.38419e-07 2.3 0
v 0.7 2.3 0
v 0.8 2.3 0
v 0.9 2.3 0
v 1.1 2.3 0
v 1.2 2.3 0
v 1.8 2.3 0
v 1.9 2.3 0
v -1.2 2.4 0
v -1.1 2.4 0
v -0.8 2.4 0
v -0.7 2.4 0
v -0.6 2.4 0
v -0.5 2.4 0
v -0.4 2.4 0
v -0.2 2.4 0
v -0.0999999 2.4 0
v 1 2.4 0
v 1.1 2.4 0
v 1.2 2.4 0
v 1.3 2.4 0
v 2.1 2.4 0
v 2.2 2.4 0
v -2.2 2.5 0
v -1.4 2.5 0
v -1.3 2.5 0
v -1.2 2.5 0
v -0.7 2.5 0
v -0.6 2.5 0
v -0.5 2.5 0
v -0.4 2.5 0
v -0.2 2.5 0
v 0.4 2.5 0
v 0.5 2.5 0
v 0.7 2.5 0
v 1 2.5 0
v 1.2 2.5 0
v 1.3 2.5 0
v 1.4 2.5 0
v 1.9 2.5 0
v 2.1 2.5 0
v 2.2 2.5 0
v -2.3 1.2 0.1
v -1.8 1.2 0.1
v -1.4 1.2 0.1
v 1.8 1.2 0.1
v -2.2 1.3 0.1
v -1.9 1.3 0.1
v -1.3 1.3 0.1
v -1 1.3 0.1
v -0.8 1.3 0.1
v -0.5 1.3 0.1
v -0.4 1.3 0.1
v 0.4 1.3 0.1
v 0.5 1.3 0.1
v 1.3 1.3 0.1
v 1.4 1.3 0.1
v 1.7 1.3 0.1
v -0.9 1.4 0.1
v -0.8 1.4 0.1
v -1 1.5 0.1
v -0.9 1.5 0.1
v -0.6 1.5 0.1
v -0.5 1.5 0.1
v -1.8 1.6 0.1
v -1.4 1.6 0.1
v -0.7 1.6 0.1
v -0.6 1.6 0.1
v -0.0999999 1.6 0.1
v 0.1 1.6 0.1
v 0.8 1.6 0.1
v 1 1.6 0.1
v 1.8 1.6 0.1
v 2.3 1.6 0.1
v -1.9 1.7 0.1
v -1.4 1.7 0.1
v -0.7 1.7 0.1
v -0.5 1.7 0.1
v 1.7 1.7 0.1
v 2.2 1.7 0.1
v -1.9 2 0.1
v -1.6 2 0.1
v -1 2 0.1
v -0.7 2 0.1
v 1.7 2 0.1
v 2.2 2 0.1
v -1.9 2.2 0.1
v -1.6 2.2 0.1
v -1 2.2 0.1
v -0.7 2.2 0.1
v -0.0999999 2.2 0.1
v 0.1 2.2 0.1
v 0.8 2.2 0.1
v 1 2.2 0.1
v 1.7 2.2 0.1
v 2.2 2.2 0.1
v -2.2 2.5 0.1
v -1.4 2.5 0.1
v -1.3 2.5 0.1
v -0.5 2.5 0.1
v -0.4 2.5 0.1
v 0.4 2.5 0.1
v 0.5 2.5 0.1
v 1.3 2.5 0.1
v 1.4 2.5 0.1
v 2.2 2.5 0.1
v -2.3 2.6 0.1
v 2.3 2.6 0.1

# faces
f 3/1/1 2/1/1 1/1/1
f 4/1/1 2/1/1 3/1/1
f 11/1/1 6/1/1 5/1/1
f 11/1/1 7/1/1 6/1/1
f 12/1/1 7/1/1 11/1/1
f 13/1/1 10/1/1 9/1/1
f 13/1/1 9/1/1 8/1/1
f 14/1/1 10/1/1 13/1/1
f 20/1/1 16/1/1 15/1/1
f 21/1/1 16/1/1 20/1/1
f 22/1/1 19/1/1 18/1/1
f 22/1/1 18/1/1 17/1/1
f 23/1/1 19/1/1 22/1/1
f 28/1/1 25/1/1 24/1/1
f 29/1/1 25/1/1 28/1/1
f 30/1/1 27/1/1 26/1/1
f 31/1/1 27/1/1 30/1/1
f 34/1/1 33/1/1 32/1/1
f 35/1/1 33/1/1 34/1/1
f 38/1/1 37/1/1 36/1/1
f 39/1/1 37/1/1 38/1/1
f 46/1/1 41/1/1 40/1/1
f 47/1/1 41/1/1 46/1/1
f 48/1/1 45/1/1 44/1/1
f 48/1/1 43/1/1 42/1/1
f 48/1/1 44/1/1 43/1/1
f 49/1/1 45/1/1 48/1/1
f 52/1/1 51/1/1 50/1/1
f 53/1/1 51/1/1 52/1/1
f 58/1/1 55/1/1 54/1/1
f 58/1/1 57/1/1 56/1/1
f 58/1/1 56/1/1 55/1/1
f 59/1/1 57/1/1 58/1/1
f 63/1/1 61/1/1 60/1/1
f 63/1/1 62/1/1 61/1/1
f 64/1/1 62/1/1 63/1/1
f 70/1/1 66/1/1 65/1/1
f 70/1/1 69/1/1 68/1/1
f 70/1/1 68/1/1 67/1/1
f 70/1/1 67/1/1 66/1/1
f 71/1/1 69/1/1 70/1/1
f 76/1/1 73/1/1 72/1/1
f 77/1/1 73/1/1 76/1/1
f 78/1/1 75/1/1 74/1/1
f 79/1/1 75/1/1 78/1/1
f 86/1/1 81/1/1 80/1/1
f 86/1/1 82/1/1 81/1/1
f 87/1/1 82/1/1 86/1/1
f 88/1/1 85/1/1 84/1/1
f 88/1/1 84/1/1 83/1/1
f 89/1/1 85/1/1 88/1/1
f 90/1/2 91/1/2 95/1/2
f 93/1/2 94/1/2 95/1/2
f 92/1/2 93/1/2 95/1/2
f 91/1/2 92/1/2 95/1/2
f 95/1/2 94/1/2 96/1/2
f 97/1/2 98/1/2 99/1/2
f 99/1/2 98/1/2 100/1/2
f 101/1/2 102/1/2 103/1/2
f 103/1/2 102/1/2 104/1/2
f 105/1/2 106/1/2 108/1/2
f 106/1/2 107/1/2 108/1/2
f 108/1/2 107/1/2 109/1/2
f 110/1/2 111/1/2 112/1/2
f 112/1/2 111/1/2 113/1/2
f 114/1/2 115/1/2 116/1/2
f 116/1/2 115/1/2 117/1/2
f 118/1/2 119/1/2 120/1/2
f 120/1/2 119/1/2 121/1/2
f 122/1/2 123/1/2 127/1/2
f 125/1/2 126/1/2 127/1/2
f 124/1/2 125/1/2 127/1/2
f 123/1/2 124/1/2 127/1/2
f 127/1/2 126/1/2 128/1/2
f 129/1/2 130/1/2 133/1/2
f 131/1/2 132/1/2 133/1/2
f 130/1/2 131/1/2 133/1/2
f 133/1/2 132/1/2 134/1/2
f 135/1/2 136/1/2 139/1/2
f 137/1/2 138/1/2 139/1/2
f 136/1/2 137/1/2 139/1/2
f 139/1/2 138/1/2 140/1/2
f 141/1/2 142/1/2 144/1/2
f 142/1/2 143/1/2 144/1/2
f 144/1/2 143/1/2 145/1/2
f 146/1/2 147/1/2 151/1/2
f 149/1/2 150/1/2 151/1/2
f 148/1/2 149/1/2 151/1/2
f 147/1/2 148/1/2 151/1/2
f 151/1/2 150/1/2 152/1/2
f 153/1/2 154/1/2 155/1/2
f 155/1/2 154/1/2 156/1/2
f 157/1/2 158/1/2 159/1/2
f 159/1/2 158/1/2 160/1/2
f 163/1/3 162/1/3 161/1/3
f 164/1/3 162/1/3 163/1/3
f 167/1/3 166/1/3 165/1/3
f 168/1/3 166/1/3 167/1/3
f 171/1/3 170/1/3 169/1/3
f 172/1/3 170/1/3 171/1/3
f 175/1/3 174/1/3 173/1/3
f 176/1/3 174/1/3 175/1/3
f 179/1/3 178/1/3 177/1/3
f 180/1/3 178/1/3 179/1/3
f 183/1/3 182/1/3 181/1/3
f 184/1/3 182/1/3 183/1/3
f 187/1/3 186/1/3 185/1/3
f 188/1/3 186/1/3 187/1/3
f 191/1/3 190/1/3 189/1/3
f 192/1/3 190/1/3 191/1/3
f 195/1/3 194/1/3 193/1/3
f 196/1/3 194/1/3 195/1/3
f 197/1/3 194/1/3 196/1/3
f 200/1/3 199/1/3 198/1/3
f 201/1/3 199/1/3 200/1/3
f 204/1/3 203/1/3 202/1/3
f 205/1/3 203/1/3 204/1/3
f 206/1/3 203/1/3 205/1/3
f 209/1/3 208/1/3 207/1/3
f 210/1/3 208/1/3 209/1/3
f 213/1/3 212/1/3 211/1/3
f 214/1/3 212/1/3 213/1/3
f 215/1/3 212/1/3 214/1/3
f 216/1/3 212/1/3 215/1/3
f 217/1/3 212/1/3 216/1/3
f 220/1/3 219/1/3 218/1/3
f 221/1/3 219/1/3 220/1/3
f 222/1/3 219/1/3 221/1/3
f 225/1/3 224/1/3 223/1/3
f 226/1/3 224/1/3 225/1/3
f 227/1/3 224/1/3 226/1/3
f 228/1/3 224/1/3 227/1/3
f 229/1/3 224/1/3 228/1/3
f 232/1/3 231/1/3 230/1/3
f 233/1/3 231/1/3 232/1/3
f 234/1/3 231/1/3 233/1/3
f 235/1/3 231/1/3 234/1/3
f 236/1/4 237/1/4 238/1/4
f 238/1/4 237/1/4 239/1/4
f 239/1/4 237/1/4 240/1/4
f 241/1/4 242/1/4 243/1/4
f 243/1/4 242/1/4 244/1/4
f 245/1/4 246/1/4 247/1/4
f 247/1/4 246/1/4 248/1/4
f 249/1/4 250/1/4 251/1/4
f 251/1/4 250/1/4 252/1/4
f 252/1/4 250/1/4 253/1/4
f 253/1/4 250/1/4 254/1/4
f 255/1/4 256/1/4 257/1/4
f 257/1/4 256/1/4 258/1/4
f 258/1/4 256/1/4 259/1/4
f 259/1/4 256/1/4 260/1/4
f 261/1/4 262/1/4 263/1/4
f 263/1/4 262/1/4 264/1/4
f 265/1/4 266/1/4 267/1/4
f 267/1/4 266/1/4 268/1/4
f 269/1/4 270/1/4 271/1/4
f 271/1/4 270/1/4 272/1/4
f 273/1/4 274/1/4 275/1/4
f 275/1/4 274/1/4 276/1/4
f 276/1/4 274/1/4 277/1/4
f 277/1/4 274/1/4 278/1/4
f 279/1/4 280/1/4 281/1/4
f 281/1/4 280/1/4 282/1/4
f 282/1/4 280/1/4 283/1/4
f 284/1/4 285/1/4 286/1/4
f 286/1/4 285/1/4 287/1/4
f 287/1/4 285/1/4 288/1/4
f 289/1/4 290/1/4 291/1/4
f 291/1/4 290/1/4 292/1/4
f 293/1/4 294/1/4 295/1/4
f 295/1/4 294/1/4 296/1/4
f 296/1/4 294/1/4 297/1/4
f 298/1/4 299/1/4 300/1/4
f 300/1/4 299/1/4 301/1/4
f 301/1/4 299/1/4 302/1/4
f 303/1/4 304/1/4 305/1/4
f 305/1/4 304/1/4 306/1/4
f 306/1/4 304/1/4 307/1/4
f 308/1/4 309/1/4 310/1/4
f 310/1/4 309/1/4 311/1/4
f 311/1/4 309/1/4 312/1/4
f 313/1/4 314/1/4 315/1/4
f 315/1/4 314/1/4 316/1/4
f 321/1/5 318/1/5 317/1/5
f 322/1/5 320/1/5 319/1/5
f 323/1/5 320/1/5 322/1/5
f 325/1/5 321/1/5 317/1/5
f 325/1/5 324/1/5 323/1/5
f 325/1/5 323/1/5 322/1/5
f 325/1/5 322/1/5 321/1/5
f 326/1/5 324/1/5 325/1/5
f 327/2/6 328/2/6 344/2/6
f 328/3/6 329/3/6 344/3/6
f 344/3/6 329/3/6 345/3/6
f 332/2/6 333/2/6 347/2/6
f 334/4/6 335/4/6 348/4/6
f 335/2/6 336/2/6 349/2/6
f 348/4/6 335/4/6 349/4/6
f 336/4/6 337/4/6 350/4/6
f 349/2/6 336/2/6 350/2/6
f 350/4/6 337/4/6 351/4/6
f 338/4/6 339/4/6 352/4/6
f 339/2/6 340/2/6 353/2/6
f 352/4/6 339/4/6 353/4/6
f 353/2/6 340/2/6 354/2/6
f 340/4/6 341/4/6 355/4/6
f 354/2/6 340/2/6 355/2/6
f 355/4/6 341/4/6 356/4/6
f 330/2/6 331/2/6 357/2/6
f 346/2/6 347/2/6 358/2/6
f 347/2/6 333/2/6 359/2/6
f 358/2/6 347/2/6 359/2/6
f 359/2/6 333/2/6 360/2/6
f 360/2/6 333/2/6 361/2/6
f 348/2/6 349/2/6 362/2/6
f 350/2/6 351/2/6 362/2/6
f 349/2/6 350/2/6 362/2/6
f 362/2/6 351/2/6 363/2/6
f 353/3/6 354/3/6 364/3/6
f 352/2/6 353/2/6 364/2/6
f 354/2/6 355/2/6 365/2/6
f 364/3/6 354/3/6 365/3/6
f 355/2/6 356/2/6 365/2/6
f 357/2/6 358/2/6 366/2/6
f 358/2/6 359/2/6 366/2/6
f 359/4/6 360/4/6 367/4/6
f 366/2/6 359/2/6 367/2/6
f 367/4/6 360/4/6 368/4/6
f 348/2/6 362/2/6 369/2/6
f 362/3/6 363/3/6 370/3/6
f 369/2/6 362/2/6 370/2/6
f 363/2/6 351/2/6 371/2/6
f 370/3/6 363/3/6 371/3/6
f 371/2/6 351/2/6 372/2/6
f 365/2/6 356/2/6 373/2/6
f 364/2/6 365/2/6 373/2/6
f 373/2/6 356/2/6 374/2/6
f 344/2/6 345/2/6 375/2/6
f 327/2/6 344/2/6 375/2/6
f 375/2/6 345/2/6 376/2/6
f 376/2/6 345/2/6 377/2/6
f 330/2/6 357/2/6 381/2/6
f 357/2/6 366/2/6 381/2/6
f 381/2/6 366/2/6 382/2/6
f 382/2/6 366/2/6 383/2/6
f 366/3/6 367/3/6 384/3/6
f 383/2/6 366/2/6 384/2/6
f 384/3/6 367/3/6 385/3/6
f 372/2/6 351/2/6 388/2/6
f 388/2/6 351/2/6 389/2/6
f 342/2/6 343/2/6 390/2/6
f 390/2/6 343/2/6 391/2/6
f 376/2/6 377/2/6 394/2/6
f 377/2/6 378/2/6 394/2/6
f 378/3/6 379/3/6 395/3/6
f 394/2/6 378/2/6 395/2/6
f 379/2/6 380/2/6 396/2/6
f 395/3/6 379/3/6 396/3/6
f 396/2/6 380/2/6 397/2/6
f 382/2/6 383/2/6 398/2/6
f 381/3/6 382/3/6 398/3/6
f 383/3/6 384/3/6 399/3/6
f 398/2/6 383/2/6 399/2/6
f 384/3/6 385/3/6 399/3/6
f 385/3/6 386/3/6 399/3/6
f 386/2/6 387/2/6 400/2/6
f 399/3/6 386/3/6 400/3/6
f 400/2/6 387/2/6 401/2/6
f 372/2/6 388/2/6 402/2/6
f 388/3/6 389/3/6 403/3/6
f 402/2/6 388/2/6 403/2/6
f 364/2/6 373/2/6 404/2/6
f 352/2/6 364/2/6 404/2/6
f 404/2/6 373/2/6 405/2/6
f 342/2/6 390/2/6 406/2/6
f 390/3/6 391/3/6 407/3/6
f 406/2/6 390/2/6 407/2/6
f 391/2/6 392/2/6 408/2/6
f 407/3/6 391/3/6 408/3/6
f 408/2/6 392/2/6 409/2/6
f 392/4/6 393/4/6 410/4/6
f 409/2/6 392/2/6 410/2/6
f 410/4/6 393/4/6 411/4/6
f 375/3/6 376/3/6 412/3/6
f 376/2/6 394/2/6 413/2/6
f 412/3/6 376/3/6 413/3/6
f 413/2/6 394/2/6 414/2/6
f 394/3/6 395/3/6 415/3/6
f 414/2/6 394/2/6 415/2/6
f 396/3/6 397/3/6 415/3/6
f 395/3/6 396/3/6 415/3/6
f 374/2/6 356/2/6 416/2/6
f 416/2/6 356/2/6 417/2/6
f 413/2/6 414/2/6 418/2/6
f 412/2/6 413/2/6 418/2/6
f 414/3/6 415/3/6 419/3/6
f 418/2/6 414/2/6 419/2/6
f 415/3/6 397/3/6 420/3/6
f 419/3/6 415/3/6 420/3/6
f 400/3/6 401/3/6 421/3/6
f 398/3/6 399/3/6 421/3/6
f 399/3/6 400/3/6 421/3/6
f 421/3/6 401/3/6 422/3/6
f 405/2/6 373/2/6 423/2/6
f 404/3/6 405/3/6 423/3/6
f 423/2/6 373/2/6 424/2/6
f 417/2/6 356/2/6 425/2/6
f 416/3/6 417/3/6 425/3/6
f 425/2/6 356/2/6 426/2/6
f 408/3/6 409/3/6 427/3/6
f 406/3/6 407/3/6 427/3/6
f 407/3/6 408/3/6 427/3/6
f 427/3/6 409/3/6 428/3/6
f 428/3/6 409/3/6 429/3/6
f 410/2/6 411/2/6 430/2/6
f 429/3/6 409/3/6 430/3/6
f 409/2/6 410/2/6 430/2/6
f 430/2/6 411/2/6 431/2/6
f 412/2/6 418/2/6 432/2/6
f 432/2/6 418/2/6 433/2/6
f 402/3/6 403/3/6 434/3/6
f 403/3/6 389/3/6 435/3/6
f 434/3/6 403/3/6 435/3/6
f 424/2/6 373/2/6 436/2/6
f 423/3/6 424/3/6 436/3/6
f 436/2/6 373/2/6 437/2/6
f 427/2/6 428/2/6 438/2/6
f 428/3/6 429/3/6 439/3/6
f 438/2/6 428/2/6 439/2/6
f 412/2/6 432/2/6 440/2/6
f 432/3/6 433/3/6 441/3/6
f 440/2/6 432/2/6 441/2/6
f 441/3/6 433/3/6 442/3/6
f 420/3/6 397/3/6 443/3/6
f 398/3/6 421/3/6 444/3/6
f 422/3/6 401/3/6 446/3/6
f 369/3/6 370/3/6 447/3/6
f 370/3/6 371/3/6 447/3/6
f 434/2/6 435/2/6 449/2/6
f 435/3/6 389/3/6 450/3/6
f 449/2/6 435/2/6 450/2/6
f 436/3/6 437/3/6 451/3/6
f 425/3/6 426/3/6 453/3/6
f 416/3/6 425/3/6 453/3/6
f 453/3/6 426/3/6 454/3/6
f 426/2/6 356/2/6 455/2/6
f 454/3/6 426/3/6 455/3/6
f 455/2/6 356/2/6 456/2/6
f 439/3/6 429/3/6 457/3/6
f 438/3/6 439/3/6 457/3/6
f 398/3/6 444/3/6 460/3/6
f 444/2/6 445/2/6 461/2/6
f 460/3/6 444/3/6 461/3/6
f 445/3/6 446/3/6 462/3/6
f 461/2/6 445/2/6 462/2/6
f 462/3/6 446/3/6 463/3/6
f 369/3/6 447/3/6 464/3/6
f 447/2/6 448/2/6 465/2/6
f 464/3/6 447/3/6 465/3/6
f 448/3/6 449/3/6 466/3/6
f 465/2/6 448/2/6 466/2/6
f 449/3/6 450/3/6 466/3/6
f 436/3/6 451/3/6 467/3/6
f 423/3/6 436/3/6 467/3/6
f 451/2/6 452/2/6 468/2/6
f 467/3/6 451/3/6 468/3/6
f 453/3/6 454/3/6 469/3/6
f 468/2/6 452/2/6 469/2/6
f 452/3/6 453/3/6 469/3/6
f 454/2/6 455/2/6 470/2/6
f 469/3/6 454/3/6 470/3/6
f 455/3/6 456/3/6 471/3/6
f 470/2/6 455/2/6 471/2/6
f 458/2/6 459/2/6 472/2/6
f 457/3/6 458/3/6 472/3/6
f 472/2/6 459/2/6 473/2/6
f 381/3/6 398/3/6 474/3/6
f 398/3/6 460/3/6 474/3/6
f 460/2/6 461/2/6 475/2/6
f 474/3/6 460/3/6 475/3/6
f 462/2/6 463/2/6 475/2/6
f 461/2/6 462/2/6 475/2/6
f 463/3/6 446/3/6 476/3/6
f 475/2/6 463/2/6 476/2/6
f 446/3/6 401/3/6 477/3/6
f 476/3/6 446/3/6 477/3/6
f 477/3/6 401/3/6 478/3/6
f 478/3/6 401/3/6 479/3/6
f 369/3/6 464/3/6 480/3/6
f 464/2/6 465/2/6 481/2/6
f 480/3/6 464/3/6 481/3/6
f 465/3/6 466/3/6 482/3/6
f 481/2/6 465/2/6 482/2/6
f 467/2/6 468/2/6 483/2/6
f 469/2/6 470/2/6 483/2/6
f 468/2/6 469/2/6 483/2/6
f 470/3/6 471/3/6 484/3/6
f 483/2/6 470/2/6 484/2/6
f 471/3/6 456/3/6 485/3/6
f 484/3/6 471/3/6 485/3/6
f 485/3/6 456/3/6 486/3/6
f 473/2/6 459/2/6 487/2/6
f 487/2/6 459/2/6 488/2/6
f 441/3/6 442/3/6 489/3/6
f 442/3/6 443/3/6 489/3/6
f 440/3/6 441/3/6 489/3/6
f 443/3/6 397/3/6 490/3/6
f 489/3/6 443/3/6 490/3/6
f 381/3/6 474/3/6 491/3/6
f 475/2/6 476/2/6 492/2/6
f 491/3/6 474/3/6 492/3/6
f 474/2/6 475/2/6 492/2/6
f 476/2/6 477/2/6 492/2/6
f 477/3/6 478/3/6 493/3/6
f 492/2/6 477/2/6 493/2/6
f 478/2/6 479/2/6 494/2/6
f 493/3/6 478/3/6 494/3/6
f 494/2/6 479/2/6 495/2/6
f 480/2/6 481/2/6 496/2/6
f 481/3/6 482/3/6 497/3/6
f 496/2/6 481/2/6 497/2/6
f 482/3/6 466/3/6 498/3/6
f 497/3/6 482/3/6 498/3/6
f 466/3/6 450/3/6 498/3/6
f 450/3/6 389/3/6 498/3/6
f 423/3/6 467/3/6 499/3/6
f 404/3/6 423/3/6 499/3/6
f 467/2/6 483/2/6 500/2/6
f 499/3/6 467/3/6 500/3/6
f 483/3/6 484/3/6 501/3/6
f 500/2/6 483/2/6 501/2/6
f 484/3/6 485/3/6 501/3/6
f 485/2/6 486/2/6 502/2/6
f 501/3/6 485/3/6 502/3/6
f 502/2/6 486/2/6 503/2/6
f 472/3/6 473/3/6 504/3/6
f 438/3/6 457/3/6 504/3/6
f 457/3/6 472/3/6 504/3/6
f 473/2/6 487/2/6 505/2/6
f 504/3/6 473/3/6 505/3/6
f 487/4/6 488/4/6 506/4/6
f 505/2/6 487/2/6 506/2/6
f 506/4/6 488/4/6 507/4/6
f 508/1/6 509/1/6 512/1/6
f 512/1/6 509/1/6 513/1/6
f 510/1/6 511/1/6 514/1/6
f 514/1/6 511/1/6 515/1/6
f 515/1/6 511/1/6 516/1/6
f 516/1/6 511/1/6 517/1/6
f 517/1/6 511/1/6 518/1/6
f 518/1/6 511/1/6 519/1/6
f 519/1/6 511/1/6 520/1/6
f 520/1/6 511/1/6 521/1/6
f 521/1/6 511/1/6 522/1/6
f 522/1/6 511/1/6 523/1/6
f 515/1/6 516/1/6 524/1/6
f 524/1/6 516/1/6 525/1/6
f 515/1/6 524/1/6 526/1/6
f 526/1/6 524/1/6 527/1/6
f 517/1/6 518/1/6 529/1/6
f 513/1/6 509/1/6 530/1/6
f 510/1/6 514/1/6 531/1/6
f 528/1/6 529/1/6 533/1/6
f 523/1/6 511/1/6 538/1/6
f 530/1/6 531/1/6 540/1/6
f 513/1/6 530/1/6 540/1/6
f 531/1/6 514/1/6 541/1/6
f 540/1/6 531/1/6 541/1/6
f 532/1/6 533/1/6 542/1/6
f 529/1/6 518/1/6 543/1/6
f 542/1/6 533/1/6 543/1/6
f 533/1/6 529/1/6 543/1/6
f 538/1/6 539/1/6 544/1/6
f 523/1/6 538/1/6 544/1/6
f 544/1/6 539/1/6 545/1/6
f 545/1/6 539/1/6 551/1/6
f 546/1/6 547/1/6 552/1/6
f 552/1/6 547/1/6 553/1/6
f 548/1/6 549/1/6 554/1/6
f 554/1/6 549/1/6 555/1/6
f 534/1/6 535/1/6 556/1/6
f 556/1/6 535/1/6 557/1/6
f 536/1/6 537/1/6 558/1/6
f 558/1/6 537/1/6 559/1/6
f 550/1/6 551/1/6 560/1/6
f 551/1/6 539/1/6 561/1/6
f 560/1/6 551/1/6 561/1/6
f 508/1/6 512/1/6 562/1/6
f 541/1/6 514/1/6 563/1/6
f 563/1/6 514/1/6 564/1/6
f 543/1/6 518/1/6 565/1/6
f 565/1/6 518/1/6 566/1/6
f 519/1/6 520/1/6 567/1/6
f 567/1/6 520/1/6 568/1/6
f 521/1/6 522/1/6 569/1/6
f 569/1/6 522/1/6 570/1/6
f 561/1/6 539/1/6 571/1/6
f 563/1/6 564/1/6 572/1/6
f 570/1/6 571/1/6 572/1/6
f 569/1/6 570/1/6 572/1/6
f 567/1/6 568/1/6 572/1/6
f 568/1/6 569/1/6 572/1/6
f 565/1/6 566/1/6 572/1/6
f 566/1/6 567/1/6 572/1/6
f 508/1/6 562/1/6 572/1/6
f 564/1/6 565/1/6 572/1/6
f 562/1/6 563/1/6 572/1/6
f 571/1/6 539/1/6 573/1/6
f 572/1/6 571/1/6 573/1/6
